<svg xmlns="http://www.w3.org/2000/svg" viewBox="0 0 900 900" role="img" aria-labelledby="title desc">
  <title id="title">Portal Door camera demo</title>
  <desc id="desc">A static mock of a phone camera view detecting a doorway frame and a person stepping through.</desc>
  <rect width="900" height="900" rx="72" fill="#fbfaf7"/>
  <rect x="156" y="64" width="588" height="772" rx="78" fill="#171717"/>
  <rect x="190" y="112" width="520" height="676" rx="48" fill="#f2efe8"/>
  <rect x="230" y="154" width="440" height="592" rx="30" fill="#e8eee9"/>
  <path d="M292 686V236h316v450" fill="none" stroke="#2f6f5e" stroke-width="28" stroke-linecap="round" stroke-linejoin="round"/>
  <path d="M336 684V284h228v400" fill="none" stroke="#ffffff" stroke-width="8" stroke-linecap="round" stroke-linejoin="round" opacity=".82"/>
  <circle cx="450" cy="405" r="44" fill="#171717"/>
  <path d="M450 455v126" stroke="#171717" stroke-width="24" stroke-linecap="round"/>
  <path d="M382 512c46 32 90 32 136 0" fill="none" stroke="#171717" stroke-width="20" stroke-linecap="round"/>
  <path d="M448 580l-54 72M454 580l58 72" fill="none" stroke="#171717" stroke-width="20" stroke-linecap="round"/>
  <rect x="248" y="186" width="132" height="34" rx="17" fill="#ffffff"/>
  <circle cx="262" cy="203" r="6" fill="#2f6f5e"/>
  <text x="281" y="207" fill="#171717" font-family="Arial, Helvetica, sans-serif" font-size="14" font-weight="700">Doorway found</text>
  <path d="M238 704h424" stroke="#ddd8cf" stroke-width="10" stroke-linecap="round"/>
  <circle cx="450" cy="805" r="12" fill="#ddd8cf"/>
</svg>
