<svg xmlns="http://www.w3.org/2000/svg" width="763.36" height="76.33" aria-label="Riddim Software" viewBox="19.36 139.17 763.36 76.33"><path fill="#f5f1e8" d="M19.36 214.26h10.82v-29.75h15.8l14.36 29.75h12.37l-14.97-30.68c11.12-2.92 15.8-12.17 15.8-20.6 0-10.92-5.61-21.52-23.5-21.52H19.36Zm10.82-40.15v-22.25h20.07c9.57 0 12.06 6.03 12.06 11.12 0 5.62-3.01 11.13-12.06 11.13Zm63.44-21.32c3.64 0 6.55-2.91 6.55-6.55s-2.91-6.55-6.55-6.55a6.53 6.53 0 0 0-6.56 6.55 6.53 6.53 0 0 0 6.56 6.55m-5.41 61.47h10.81v-53.15H88.21Zm45.97 1.24c5.92 0 9.77-1.87 12.58-4.99v3.75h10.82v-75.09l-10.82 4.99v20.7c-2.7-2.81-6.76-5-12.58-5-13 0-22.05 10.3-22.05 27.77s8.63 27.87 22.05 27.87m1.56-10.19c-8.01 0-12.8-7.38-12.8-17.68 0-11.33 4.68-17.57 12.8-17.57 5.51 0 9.36 3.12 11.02 5.82v23.4c-2.39 3.85-6.24 6.03-11.02 6.03m56.88 10.19c5.93 0 9.78-1.87 12.59-4.99v3.75h10.81v-75.09l-10.81 4.99v20.7c-2.71-2.81-6.76-5-12.59-5-13 0-22.04 10.3-22.04 27.77s8.63 27.87 22.04 27.87m1.56-10.19c-8 0-12.79-7.38-12.79-17.68 0-11.33 4.68-17.57 12.79-17.57 5.52 0 9.36 3.12 11.03 5.82v23.4c-2.39 3.85-6.24 6.03-11.03 6.03m42.96-52.52c3.64 0 6.55-2.91 6.55-6.55s-2.91-6.55-6.55-6.55a6.53 6.53 0 0 0-6.56 6.55 6.53 6.53 0 0 0 6.56 6.55m-5.41 61.47h10.81v-53.15h-10.81Zm88.92 0h10.81v-34.32c0-14.04-8.32-20.08-19.13-20.08-6.97 0-12.38 2.4-15.71 7.6-3.01-5.41-8.32-7.6-14.14-7.6-5.41 0-10.4 1.77-13.42 6.14v-4.89h-10.81v53.15h10.81v-31.31c0-8.53 4.79-12.89 10.61-12.89 6.45 0 9.78 4.47 9.78 12.37v31.83h10.81v-31.31c0-8.53 4.79-12.89 10.61-12.89 6.45 0 9.78 4.47 9.78 12.37Zm73.73 1.24c14.04 0 24.86-7.8 24.86-21.73 0-15.08-12.48-19.55-22.98-23.4-7.91-2.71-14.67-5.1-14.67-11.03 0-5.51 4.16-8.73 11.13-8.73 7.07 0 11.54 3.22 13.31 7.38l9.99-3.33c-2.5-8.32-10.09-14.45-22.47-14.45-14.77 0-23.19 8.73-23.19 19.03 0 13.31 11.13 17.26 21.22 20.9 8.52 3.02 16.43 5.83 16.43 13.73 0 7.39-5.31 11.23-13.21 11.23-7.8 0-13.73-4.47-16.74-11.02l-10.2 3.74c3.64 10.82 13.52 17.68 26.52 17.68m60.53 0c14.87 0 24.34-10.29 24.34-27.76 0-17.48-9.47-27.88-24.34-27.88s-24.23 10.4-24.23 27.88c0 17.47 9.36 27.76 24.23 27.76m0-10.19c-8.21 0-13.41-6.65-13.41-17.57s5.2-17.68 13.41-17.68c8.32 0 13.52 6.76 13.52 17.68s-5.2 17.57-13.52 17.57m51.9-34.84h11.96v-9.36h-11.96v-6.55c0-2.7.83-4.78 4.37-4.78 2.18 0 4.36.52 7.59 1.87v-8.95c-3.12-1.56-6.45-2.49-10.61-2.49-6.03 0-12.17 2.6-12.17 12.37v8.53h-7.9v9.36h7.9v43.79h10.82Zm35.67 45.03c4.26 0 7.8-.93 10.71-2.39l1.35-10.09c-2.7 1.67-5.3 2.5-7.9 2.5-4.16 0-5.2-2.5-5.2-6.03v-29.02h12.58v-9.36h-12.58v-21.94l-10.82 5.2v16.74h-8.21v9.36h8.21v31.83c0 8 3.44 13.2 11.86 13.2m34.01-1.24h9.57l8.73-30.79c.73-2.39 1.35-5.41 1.56-6.76.21 1.35.94 4.27 1.67 6.66l8.84 30.89h9.56l14.15-53.15h-10.61l-7.49 33.07c-.52 2.29-.83 3.96-1.04 5.41-.21-1.45-.62-3.33-1.14-5.41l-8.84-33.07h-9.99l-8.84 33.07c-.52 2.08-.93 3.96-1.14 5.41-.21-1.45-.52-3.12-1.04-5.41l-7.49-33.07h-10.61Zm94.85 0h10.4v-34.43c0-17.68-11.24-19.97-20.28-19.97-8.74 0-15.5 2.5-19.87 5.52l3.23 8.84c3.95-2.92 8.52-4.79 15.18-4.79 7.8 0 11.34 2.91 11.34 10.92v2.91c-3.54-2.08-8.22-3.12-13.11-3.12-10.4 0-20.38 5.31-20.38 17.58 0 11.75 8.11 17.78 18.93 17.78 7.07 0 11.85-3.01 14.56-5.82Zm-12.59-8.32c-6.86 0-10.5-3.23-10.5-8.22 0-5.82 5.3-8.22 11.75-8.22 4.16 0 8.42 1.04 11.34 2.6v8.12c-2.81 3.12-7.08 5.72-12.59 5.72m37.55 8.32h10.81v-29.85c0-10.92 6.03-13.94 10.82-13.94 3.85 0 6.45 1.25 8.42 2.6l1.56-9.98c-2.39-2.08-5.41-3.23-8.94-3.23-5.31 0-9.36 2.29-11.86 7.7v-6.45H696.3Zm63.54 1.24c8.32 0 14.35-3.12 18.2-7.69l-7.07-7.28c-2.71 3.53-6.66 5.41-11.03 5.41-6.86 0-13.2-5.52-13.41-14.25h35.77c.32-1.87.42-4.68.42-6.97 0-16.95-10.3-24.86-22.88-24.86-14.56 0-24.13 10.3-24.13 27.77s9.36 27.87 24.13 27.87m-13.31-32.55c.52-9.88 6.55-13.52 13.31-13.52 5.72 0 11.86 3.64 12.06 13.52Z"/></svg>