<svg xmlns="http://www.w3.org/2000/svg" width="926.02" height="87.36" aria-label="Riddim Software" viewBox="13.64 125.44 926.02 87.36"><path fill="#1c2d42" d="M82.28 151.75q0 8.63-4.99 14.46-4.99 5.82-15.91 7.8l24.12 27.66q2.5 2.91 5.93 4.42t6.97 1.51v4.16H73.75l-25.79-31.62q-2.6-3.12-4.52-4.21-1.93-1.09-3.59-1.09v20.38q0 3.85.52 6.3.52 2.44 2.08 3.79t4.52 1.82q2.97.47 7.96.47v4.16H13.64v-4.16q3.43 0 5.56-.47 2.14-.47 3.33-1.77 1.2-1.3 1.61-3.64.42-2.34.42-5.98V147.7q0-3.64-.31-5.88t-1.35-3.54-2.97-1.76q-1.92-.47-5.15-.68v-4.16h35.99q15.08 0 23.29 5.3 8.22 5.31 8.22 14.77m-42.43-12.48v29.33h6.76q9.77 0 14.61-3.8 4.84-3.79 4.84-12.53 0-6.65-4.06-10.71t-11.23-4.06h-9.05q-1.87 0-1.87 1.77m81.64 16.33v39.1q0 4.16.31 6.66t1.25 3.85q.93 1.35 2.7 1.82t4.79.57v4.16H97.78v-4.16q2.91-.1 4.73-.68 1.82-.57 2.81-1.87.98-1.3 1.35-3.64.36-2.34.36-5.98v-12.79q0-6.03-.21-9.93-.2-3.9-.52-5.36-.52-2.6-2.34-3.43t-6.6-.83v-3.54zm-15.29-22.05q0-3.43 2.34-5.77t5.67-2.34q3.43 0 5.77 2.34t2.34 5.77q0 3.33-2.34 5.67t-5.77 2.34q-3.33 0-5.67-2.34t-2.34-5.67m76.13 79.25v-7.7h-.42q-7.17 7.7-18.61 7.7-5.93 0-10.87-2.08t-8.53-5.82q-3.59-3.75-5.56-8.9-1.98-5.14-1.98-11.38t2.03-11.55q2.03-5.3 5.51-9.2t8.32-6.09q4.84-2.18 10.45-2.18 5.2 0 9.21 1.56 4 1.56 7.02 5.3h.41v-8.84q0-6.13-.15-10.55-.16-4.42-.47-5.77-.52-2.19-3.17-3.18-2.66-.98-8.17-.98v-3.54l26.31-4.16v59.49q0 7.8.16 12.01t.57 6.4q.21 1.35.63 2.18.41.83 1.24 1.3.84.47 2.24.62 1.4.16 3.59.16v4.06zm-3.23-26.83v-4.06q0-3.95-.83-7.33t-2.49-5.98q-1.88-3.02-4.79-4.58t-6.24-1.56q-6.13 0-9.36 5.62-3.22 5.62-3.22 16.33 0 10.81 3.22 16.64 3.23 5.82 9.26 5.82 3.43 0 6.55-1.77 3.12-1.76 5.1-4.78 1.45-2.29 2.13-5.67.67-3.38.67-8.68m75.4 26.83v-7.7h-.41q-7.18 7.7-18.62 7.7-5.93 0-10.87-2.08t-8.52-5.82q-3.59-3.75-5.57-8.9-1.97-5.14-1.97-11.38t2.02-11.55q2.03-5.3 5.52-9.2 3.48-3.9 8.32-6.09 4.83-2.18 10.45-2.18 5.2 0 9.2 1.56 4.01 1.56 7.02 5.3h.42v-8.84q0-6.13-.16-10.55-.15-4.42-.47-5.77-.52-2.19-3.17-3.18-2.65-.98-8.16-.98v-3.54l26.31-4.16v59.49q0 7.8.16 12.01.15 4.21.57 6.4.21 1.35.62 2.18.42.83 1.25 1.3t2.24.62q1.4.16 3.58.16v4.06zm-3.22-26.83v-4.06q0-3.95-.83-7.33t-2.5-5.98q-1.87-3.02-4.78-4.58t-6.24-1.56q-6.14 0-9.36 5.62-3.23 5.62-3.23 16.33 0 10.81 3.23 16.64 3.22 5.82 9.25 5.82 3.44 0 6.56-1.77 3.12-1.76 5.09-4.78 1.46-2.29 2.13-5.67.68-3.38.68-8.68m52.1-30.37v39.1q0 4.16.32 6.66.31 2.5 1.24 3.85.94 1.35 2.71 1.82t4.78.57v4.16h-32.76v-4.16q2.91-.1 4.73-.68 1.82-.57 2.81-1.87t1.35-3.64q.37-2.34.37-5.98v-12.79q0-6.03-.21-9.93t-.52-5.36q-.52-2.6-2.34-3.43t-6.6-.83v-3.54zm-15.28-22.05q0-3.43 2.34-5.77t5.66-2.34q3.44 0 5.78 2.34t2.34 5.77q0 3.33-2.34 5.67t-5.78 2.34q-3.32 0-5.66-2.34t-2.34-5.67m52.93 47.32v13.73q0 4.37.21 6.86.21 2.5 1.14 3.8.94 1.3 2.71 1.72 1.77.41 4.89.62v4.16h-32.87v-4.16q3.12-.21 4.99-.62 1.88-.42 2.81-1.67.94-1.25 1.25-3.59t.31-6.29v-12.89q0-5.93-.15-9.88-.16-3.96-.58-5.41-.31-1.35-.78-2.13-.46-.78-1.45-1.25t-2.55-.63q-1.56-.15-4.06-.15v-3.54l20.08-3.95 1.24 9.05h.63q4.37-4.89 8.79-6.97t10.24-2.08q6.86 0 11.34 2.39 4.47 2.39 6.76 6.87h.41q3.75-4.37 8.95-6.82 5.2-2.44 11.12-2.44 6.24 0 10.87 1.56t7.23 4.47q2.08 2.39 3.07 6.24t.99 10.71v16.02q0 4.26.26 6.76t1.19 3.85q.94 1.35 2.71 1.77 1.76.41 4.88.62v4.16H394.8v-4.16q3.12-.1 4.94-.57t2.81-1.77 1.25-3.59.26-6.24v-13.62q0-5.41-.63-9.15-.62-3.75-1.97-6.04-1.36-2.28-3.59-3.27-2.24-.99-5.46-.99-3.64 0-5.98 1.77t-3.9 4.57q-2.71 4.89-2.71 12.17v13.73q0 4.26.21 6.76t1.15 3.85q.93 1.35 2.75 1.77 1.82.41 5.05.62v4.16h-32.97v-4.16q3.12-.21 4.94-.62 1.82-.42 2.81-1.67.98-1.25 1.24-3.59t.26-6.29v-13.62q0-5.41-.62-9.15-.62-3.75-2.03-6.04-1.4-2.28-3.69-3.27t-5.72-.99-5.67 1.66q-2.23 1.67-3.69 4.48-1.35 2.49-2.08 5.72-.73 3.22-.73 6.65m123.03 30.89-1.56-26.52h4.06q1.46 9.88 7.9 15.55 6.45 5.67 15.92 5.67 3.84 0 7.07-.94 3.22-.94 5.51-2.65 2.29-1.72 3.54-4.06 1.24-2.34 1.24-5.25 0-2.5-.78-4.32t-2.96-3.53q-2.18-1.72-5.98-3.49-3.8-1.76-9.83-4.05-12.17-4.68-17.99-10.87t-5.82-14.61q0-4.89 1.87-8.95 1.87-4.05 5.25-6.96 3.38-2.92 8.11-4.53t10.45-1.61q5.31 0 9.99 1.66 4.68 1.67 9.25 5l1.88-5.2h2.49l1.15 22.46h-4.06q-2.5-8.53-7.8-13.05-5.3-4.53-12.27-4.53-6.45 0-10.45 3.18-4.01 3.17-4.01 8.16 0 2.18.73 3.9t2.7 3.28q1.98 1.56 5.41 3.17t8.84 3.59q7.28 2.8 12.43 5.66t8.42 6.14q3.28 3.28 4.84 6.92t1.56 8q0 5.31-2.29 9.68-2.29 4.36-6.39 7.48-4.11 3.12-9.78 4.89t-12.53 1.77q-6.24 0-11.23-1.72-5-1.71-10.3-5.56l-2.08 6.24zm95.89-56.16q6.24 0 11.81 2.13 5.56 2.13 9.77 5.88 4.21 3.74 6.66 8.89 2.44 5.15 2.44 11.28 0 6.35-2.44 11.65-2.45 5.31-6.66 9.15-4.21 3.85-9.77 6.04-5.57 2.18-11.81 2.18-6.13 0-11.65-2.13-5.51-2.13-9.67-5.98t-6.55-9.21q-2.39-5.35-2.39-11.7 0-6.13 2.39-11.33t6.55-8.95q4.16-3.74 9.67-5.82 5.52-2.08 11.65-2.08m0 6.03q-3.12 0-5.72 1.61-2.6 1.62-4.42 4.53t-2.81 7.02q-.98 4.11-.98 9.1 0 5.2.98 9.36.99 4.16 2.81 7.07t4.37 4.52q2.55 1.62 5.77 1.62 3.23 0 5.88-1.62 2.65-1.61 4.52-4.57 1.87-2.97 2.91-7.13t1.04-9.25q0-4.99-1.04-9.05t-2.91-7.02-4.52-4.58q-2.65-1.61-5.88-1.61m36.3.73v-5.72h11.23v-5.82q0-5.62 1.92-10.3 1.93-4.68 5.36-8.06t8.27-5.2q4.83-1.82 10.76-1.82 3.54 0 6.5.68 2.97.67 5.15 1.82 2.18 1.14 3.38 2.8 1.2 1.67 1.2 3.54 0 2.39-1.77 3.95t-4.47 1.56q-1.88 0-3.28-1.25-1.4-1.24-4.21-4.57-1.25-1.46-2.6-2.08-1.35-.63-2.81-.63-4.16 0-6.55 5.05-2.39 5.04-2.39 13.88v6.45h17.57v5.72h-17.57v32.14q0 3.95.46 6.44.47 2.5 1.77 3.96 1.3 1.45 3.49 2.02 2.18.58 5.61.68v4.16h-35.15v-4.16q3.12-.1 4.99-.57t2.81-1.77 1.25-3.64.31-6.29v-32.97zm54.49 0h-7.59v-4.68q6.24-1.77 10.45-5.36 4.22-3.58 6.3-8.26h5.3v12.58h11.96v5.72H665.2v31.93q0 6.45 1.4 9.15 1.41 2.7 4.74 2.7 4.05 0 6.13-3.74l2.19 3.02q-2.92 7.38-13.73 7.38-7.18 0-11.18-3.33-4.01-3.33-4.01-9.36zm76.13 13.52-14.04 36.92h-7.8l-14.25-42.74q-1.66-5-3.84-7.02-2.19-2.03-5.83-2.24v-4.16h29.75v4.16q-3.75.1-5.2 1.09-1.46.99-1.46 3.38 0 1.15.31 2.5t.83 3.12l6.56 24.33h.41l14.56-38.58h8.53l10.92 38.58h.52l8.32-21.52q1.04-2.6 1.46-4.53.41-1.92.41-3.38 0-2.7-1.77-3.85-1.76-1.14-4.78-1.14v-4.16h22.36v4.16q-1.87 0-3.12.42-1.25.41-2.5 1.97-1.24 1.56-2.7 4.79-1.46 3.22-3.64 8.84l-14.35 35.98h-8.22l-11.02-36.92zm80.6 16.12v-9.88q-8.73 3.95-13.15 7.33t-4.42 7.02q0 3.02 1.66 4.79 1.66 1.76 4.16 1.76t4.68-.88 3.74-2.34 2.45-3.48q.88-2.03.88-4.32m-14.66-9.05 14.66-6.34v-4.37q0-6.03-2.13-8.79-2.13-2.75-6.6-2.75-3.02 0-4.58 1.61t-2.91 5.35q-.94 2.6-2.65 4.06-1.72 1.46-4.74 1.46-2.91 0-4.47-1.77t-1.56-4.99q0-5 5.46-7.91t16.49-2.91q11.64 0 16.64 4.21 4.99 4.21 4.99 14.09v22.78q0 8.84 3.53 8.84 1.98 0 3.64-1.35l1.56 3.01q-1.45 2.6-4.52 4.11t-6.92 1.51q-4.78 0-7.28-2.91-2.49-2.91-2.49-8.22h-.52q-3.02 5.41-7.8 8.22-4.79 2.81-10.92 2.81-6.55 0-10.51-3.7-3.95-3.69-3.95-9.62 0-4.57 4.06-8.58 4.05-4 13.52-7.85m65.41 7.7v4.99q0 4.06.37 6.4.36 2.34 1.51 3.58 1.14 1.25 3.32 1.62 2.19.36 5.83.36v4.16h-34.74v-4.16q3.12-.21 4.99-.62 1.88-.42 2.81-1.67.94-1.25 1.2-3.59t.26-6.29v-12.69q0-6.44-.31-10.29-.32-3.85-1.36-5.93t-2.96-2.76q-1.92-.67-5.04-.67v-3.64l20.8-3.85 1.66 11.96h.42q2.8-5.51 7.38-8.74 4.58-3.22 9.67-3.22 3.95 0 6.45 1.98 2.5 1.97 2.5 4.99 0 3.33-1.93 5.61-1.92 2.29-5.25 2.29-1.56 0-2.81-.62-1.25-.63-2.23-1.41-.99-.78-1.98-1.45-.99-.68-2.03-.68-1.97 0-3.74 2.6t-2.91 6.97q-.84 3.12-1.36 7.02t-.52 7.75m77.59 7.8 2.91 3.64q-9.46 10.71-23.61 10.71-6.45 0-11.7-2.03t-8.99-5.72q-3.75-3.69-5.83-8.79-2.08-5.09-2.08-11.33 0-6.45 2.19-11.81 2.18-5.35 6.18-9.25 4.01-3.9 9.47-6.09 5.46-2.18 12.01-2.18 11.02 0 17.16 5.93t6.14 16.64q0 1.66-.52 2.03-.52.36-2.92.36h-33.48q-.42.94-.42 3.43 0 10.19 4.42 16.12t12.01 5.93q4.37 0 8.69-1.98 4.31-1.97 8.37-5.61m-32.35-23.71h15.08q4.16 0 5.36-.47t1.2-2.24q0-4.57-2.6-7.49-2.6-2.91-6.56-2.91-4.47 0-7.95 3.69-3.49 3.7-4.53 9.42"/></svg>