<svg xmlns="http://www.w3.org/2000/svg" width="783.02" height="85.9" aria-label="Riddim Software" viewBox="15.82 81.45 783.02 85.9"><path fill="#1c2d42" d="M32.67 136.88h8.63L52.43 166h18.2l-12.79-31.51c7.28-3.02 12.79-9.47 12.79-22.57v-2.08c0-21.53-14.97-24.96-28.18-24.96H15.82V166h16.85Zm0-14.56V99.44h10.51c4.57 0 10.4 1.77 10.4 10.92v1.04c0 9.15-5.83 10.92-10.4 10.92ZM80.41 166h16.43v-55.12H80.41Zm16.85-80.29H79.99v17.37h17.27Zm29.64 23.82c-15.08 0-20.49 11.13-20.49 27.04v3.74c0 15.91 5.41 27.04 20.49 27.04 7.59 0 12.48-3.33 15.6-7.9l1.14 6.55h14.77l-.94-15.6V82.8h-16.43v32.76c-3.12-3.64-7.7-6.03-14.14-6.03m14.14 19.34v19.14c-1.35 1.97-4.47 5.2-9.36 5.2-6.45 0-8.94-4.79-8.94-12.9v-3.74c0-8.11 2.49-12.9 8.94-12.9 4.89 0 8.01 3.23 9.36 5.2m46.38-19.34c-15.08 0-20.48 11.13-20.48 27.04v3.74c0 15.91 5.4 27.04 20.48 27.04 7.6 0 12.48-3.33 15.6-7.9l1.15 6.55h14.77l-.94-15.6V82.8h-16.43v32.76c-3.12-3.64-7.7-6.03-14.15-6.03m14.15 19.34v19.14c-1.35 1.97-4.47 5.2-9.36 5.2-6.45 0-8.95-4.79-8.95-12.9v-3.74c0-8.11 2.5-12.9 8.95-12.9 4.89 0 8.01 3.23 9.36 5.2M229.13 166h16.43v-55.12h-16.43Zm16.85-80.29h-17.27v17.37h17.27ZM335.94 166v-37.96c0-10.4-4.89-18.51-16.33-18.51-8.22 0-13.63 3.64-16.95 8.53-2.4-5.2-7.08-8.53-14.46-8.53-7.9 0-13.21 3.33-16.54 8.01l-1.14-6.66h-14.66l.93 15.6V166h16.43v-37.54c1.25-1.98 3.85-4.79 8.43-4.79 4.57 0 6.55 2.6 6.55 6.97V166h16.33v-37.54c1.35-1.98 3.85-4.79 8.53-4.79 4.57 0 6.55 2.6 6.55 6.97V166Zm55.95-33.9c11.75 1.56 14.77 4.78 14.77 10.6v.52c0 5.41-3.85 9.57-11.65 9.57h-.94c-7.8 0-11.96-4.26-11.96-14.45h-16.85v.93c0 19.55 10.09 28.08 29.23 28.08 19.03 0 29.33-9.05 29.33-24.65v-1.04c0-15.08-8.95-21.11-26.63-23.5-11.85-1.56-14.25-4.68-14.25-10.61v-.52c0-5.2 3.96-8.94 10.72-8.94h.93c8.53 0 11.75 4.89 11.75 15.49h16.85v-2.18c0-19.03-8.73-27.87-28.7-27.87-18.51 0-28.6 9.46-28.6 24.13v1.14c0 14.66 8.32 20.9 26 23.3m64.37 35.25c17.79 0 25.8-11.13 25.8-27.04v-3.74c0-15.91-8.01-27.04-25.8-27.04-17.68 0-25.79 11.13-25.79 27.04v3.74c0 15.91 8.11 27.04 25.79 27.04m0-14.14c-6.44 0-9.36-4.79-9.36-12.9v-3.74c0-8.11 2.92-12.9 9.36-12.9 6.56 0 9.36 4.79 9.36 12.9v3.74c0 8.11-2.8 12.9-9.36 12.9m54.5-49.51c0-6.76 3.12-8.11 8.11-8.11 1.77 0 4.37.42 4.99.73V82.8c-.93-.52-3.84-1.35-8.84-1.35-12.37 0-20.69 5.3-20.69 20.49v8.94h-8.43v14.35h8.43V166h16.43v-40.77h12.06v-14.35h-12.06Zm42.74 7.18v-15.6h-16.43v15.6h-8.42v14.35h8.42v21.63c0 15.19 8.32 20.49 20.7 20.49 4.99 0 7.9-.83 8.84-1.35v-13.52c-.63.31-3.23.73-4.99.73-5 0-8.12-1.35-8.12-8.11v-19.87h14.15v-14.35Zm57.83 17.16 7.69 37.96h20.6l9.56-55.12h-16.12l-4.16 37.34-7.8-37.34h-19.65l-7.7 37.34-4.16-37.34h-16.12l9.47 55.12h20.69ZM687.77 166h14.77l-1.04-15.6v-19.86c0-13.32-5.41-21.01-23.4-21.01-18.2 0-23.4 9.05-23.4 18.61v.94h15.49c0-3.64 1.46-7.07 7.39-7.07 5.61 0 7.38 2.7 7.48 8.11l-12.68 1.98c-11.55 1.76-19.76 5.72-19.76 17.68v1.04c0 8.84 4.47 16.53 16.84 16.53 7.7 0 13.42-2.91 17.27-7.07Zm-12.27-11.96c-4.79 0-6.56-2.81-6.56-5.62v-.62c0-3.33 1.67-5.72 6.76-6.55l9.36-1.46v10.09c-1.76 1.87-4.88 4.16-9.56 4.16m66.24-44.51c-6.44 0-11.44 3.22-14.66 7.8l-1.14-6.45h-14.67l.94 15.6V166h16.43v-35.78c1.46-2.08 5.2-4.78 11.86-4.78h2.8v-15.81c-.41-.1-1.04-.1-1.56-.1m57.1 34.84v-7.39c0-15.91-8.01-27.45-25.48-27.45-17.37 0-26.1 11.54-26.1 27.45v2.92c0 15.91 8.42 27.45 26.72 27.45 15.92 0 24.86-8.11 24.86-18.61v-.42h-15.5c0 3.33-3.53 6.55-9.25 6.55-6.14 0-9.78-2.81-10.4-10.5Zm-25.79-22.36c5.82 0 8.73 3.33 9.25 10.5h-18.51c.52-7.17 3.43-10.5 9.26-10.5"/></svg>